<?xml version="1.0" standalone="no"?>
<!DOCTYPE svg PUBLIC "-//W3C//DTD SVG 20010904//EN"
 "http://www.w3.org/TR/2001/REC-SVG-20010904/DTD/svg10.dtd">
<svg version="1.0" xmlns="http://www.w3.org/2000/svg"
 width="2048.000000pt" height="2048.000000pt" viewBox="0 0 2048.000000 2048.000000"
 preserveAspectRatio="xMidYMid meet">

<g transform="translate(0.000000,2048.000000) scale(0.100000,-0.100000)"
fill="#000000" stroke="none">
<path d="M14456 20254 c-126 -28 -230 -80 -316 -158 -43 -38 -2057 -1874
-3730 -3401 -4191 -3822 -4392 -4005 -4404 -4005 -6 0 -157 111 -336 246 -179
136 -451 342 -605 458 l-280 211 -2387 -3 -2388 -2 0 -33 c0 -46 33 -170 65
-248 36 -84 99 -181 166 -251 30 -31 727 -669 1549 -1419 822 -749 1506 -1372
1519 -1384 l23 -23 -47 -43 c-26 -24 -722 -660 -1548 -1414 -826 -753 -1523
-1397 -1550 -1430 -62 -76 -131 -217 -158 -320 -30 -114 -30 -289 -1 -407 37
-150 104 -273 209 -385 54 -58 1128 -1034 1215 -1105 121 -99 266 -159 430
-179 172 -21 367 20 515 109 38 23 475 350 973 728 2098 1592 2630 1994 2639
1994 6 0 320 -282 698 -628 621 -566 1673 -1527 4983 -4547 597 -544 1393
-1271 1770 -1615 377 -344 706 -642 731 -662 164 -134 438 -171 669 -89 114
40 184 85 281 181 95 94 146 174 188 298 l26 77 3 2391 2 2392 -216 163 c-119
90 -1330 1009 -2692 2042 -1363 1034 -2644 2006 -2848 2160 -205 155 -370 285
-368 289 2 3 160 125 352 270 386 294 4240 3219 5175 3927 l597 453 0 2322 c0
1510 -4 2350 -10 2402 -38 300 -236 531 -535 624 -94 29 -264 36 -359 14z"/>
</g>
</svg>
